<svg id="Layer_1" data-name="Layer 1" xmlns="http://www.w3.org/2000/svg" viewBox="0 0 400 400" fill="none"><defs>
    <style>.cls-1{fill:#fff}</style></defs>
    <path d="M0 0h400v400H0z"/>
    <path d="M65.46 213.71h13.25a7.1 7.1 0 0 0 2.57 5.29 9.93 9.93 0 0 0 6.72 2.06 11.16 11.16 0 0 0 6.56-1.76 5.64 5.64 0 0 0 2.55-4.74 5.35 5.35 0 0 0-1.5-4c-1-1.14-3-2.13-6-3l-7.41-2.21q-16.15-5-16.15-17.8a16.52 16.52 0 0 1 6.17-13.29 23 23 0 0 1 15.23-5.15q9.16 0 15 5.15t5.88 13.87H95.3a6.72 6.72 0 0 0-2.09-5.13 8.29 8.29 0 0 0-5.92-2 9.28 9.28 0 0 0-5.76 1.72 5.31 5.31 0 0 0-2.29 4.43q0 4.41 6.74 6.29l7.42 2.2q17.4 5.16 16.87 19a17.11 17.11 0 0 1-2 8.11 16.22 16.22 0 0 1-5.13 5.75 25.16 25.16 0 0 1-7.06 3.32A28.25 28.25 0 0 1 88 233q-10.08 0-16.31-5.39a17.47 17.47 0 0 1-6.23-13.9ZM114.79 210.85a22.67 22.67 0 0 1 1.82-9.09 19.89 19.89 0 0 1 4.87-6.95 22.94 22.94 0 0 1 6.87-4.32 20.69 20.69 0 0 1 7.88-1.56 19.51 19.51 0 0 1 3.67.37 17.27 17.27 0 0 1 4.54 1.72 11.17 11.17 0 0 1 4.07 3.5v-4.67h12.37v42.09h-12.37v-4.8a11.19 11.19 0 0 1-5.51 4.16 19.09 19.09 0 0 1-6.75 1.43 21.53 21.53 0 0 1-10.31-2.6 21 21 0 0 1-8-7.68 21.58 21.58 0 0 1-3.15-11.6Zm16.18-7.2A9.68 9.68 0 0 0 131 218a10.72 10.72 0 0 0 7.32 2.81 10.35 10.35 0 0 0 7.16-2.75 10.14 10.14 0 0 0 0-14.52 10.36 10.36 0 0 0-7.16-2.76 10.7 10.7 0 0 0-7.32 2.87ZM167.18 199.76v-9.91h7.93V187q0-9.59 5-14.74t14-5.17h4.63v11.89h-4.63a5.62 5.62 0 0 0-4.77 2.09 9.52 9.52 0 0 0-1.61 5.92v2.9h8.5v9.91h-8.5v32.18h-12.62v-32.22ZM201.39 222.34a23.75 23.75 0 0 1 0-23 20.2 20.2 0 0 1 8-7.73 22.89 22.89 0 0 1 11-2.68 21.8 21.8 0 0 1 8.41 1.63 21 21 0 0 1 6.87 4.49 20.64 20.64 0 0 1 4.6 7 23.74 23.74 0 0 1 1.69 9.05c0 1.11-.06 2.4-.17 3.87h-30.87a6.9 6.9 0 0 0 3.54 5.28 13.16 13.16 0 0 0 6.85 1.85 13.55 13.55 0 0 0 5.21-1 9.45 9.45 0 0 0 4-3l9.11 6.24a17.2 17.2 0 0 1-8.14 6.42 30.11 30.11 0 0 1-11.1 2 22.79 22.79 0 0 1-11-2.7 20.33 20.33 0 0 1-8-7.72Zm9.7-15.19h18.23a7 7 0 0 0-3.1-5.19 10.26 10.26 0 0 0-5.75-1.76 10.9 10.9 0 0 0-5.85 1.72 7.74 7.74 0 0 0-3.53 5.23ZM279.67 215h-23.46v-11.4h23.46Z" style="fill:#fff"/>
    <path d="M334.54 169v12.3h-16.7V232h-15.35v-50.73h-16.7V169Z" style="fill:#ffcc32"/></svg>